<?xml version="1.0" standalone="no"?>
<!DOCTYPE svg PUBLIC "-//W3C//DTD SVG 20010904//EN"
 "http://www.w3.org/TR/2001/REC-SVG-20010904/DTD/svg10.dtd">
<svg version="1.0" xmlns="http://www.w3.org/2000/svg"
 width="170.000000pt" height="200.000000pt" viewBox="0 0 170.000000 200.000000"
 preserveAspectRatio="xMidYMid meet">
<g transform="translate(0.000000,200.000000) scale(0.100000,-0.100000)"
fill="#000000" stroke="none">
<path d="M656 1961 c-125 -42 -248 -163 -245 -243 0 -13 -8 -48 -20 -78 -11
-30 -30 -99 -41 -152 -13 -59 -31 -112 -46 -134 -19 -27 -22 -39 -13 -44 8 -6
2 -13 -18 -23 -43 -23 -102 -92 -130 -154 -49 -107 -67 -328 -29 -366 7 -7 22
-44 34 -83 25 -80 82 -150 131 -160 32 -7 72 -71 48 -79 -56 -18 -107 -25
-198 -25 -115 0 -129 -6 -129 -53 0 -31 47 -87 74 -87 9 0 22 -15 29 -32 19
-44 38 -59 88 -65 24 -4 51 -16 65 -29 28 -29 104 -33 161 -9 46 19 44 20 41
-13 -4 -58 40 -119 56 -77 4 11 22 15 75 15 62 0 70 -2 76 -21 9 -26 37 -21
50 9 13 30 79 32 95 2 15 -28 33 -25 53 9 21 36 22 77 2 115 -8 15 -15 29 -15
31 0 7 58 -3 85 -14 17 -7 42 -15 58 -18 32 -6 31 -4 13 -37 -16 -32 -11 -58
15 -82 17 -16 21 -16 32 -2 16 21 77 31 142 23 43 -6 55 -12 64 -32 13 -28 32
-26 46 4 6 14 21 23 45 26 29 4 39 0 57 -20 l21 -26 16 31 c27 52 21 100 -17
136 l-34 31 30 16 c45 22 64 68 72 168 7 86 8 88 39 105 43 23 97 117 104 178
2 26 8 45 13 42 13 -8 11 77 -2 115 -8 22 -8 35 -1 44 14 17 -25 112 -75 185
-45 66 -137 143 -215 180 -59 28 -72 42 -38 42 26 0 26 1 -10 56 -38 60 -53
108 -89 276 -16 75 -37 150 -45 167 -27 51 -85 102 -155 134 -60 29 -76 31
-186 34 -98 3 -131 -1 -179 -16z m276 -15 c77 -17 114 -34 163 -78 52 -45 72
-92 100 -231 31 -152 60 -239 91 -276 13 -16 24 -32 24 -35 0 -14 -39 -5 -64
15 -14 11 -26 16 -26 10 0 -5 5 -13 10 -16 20 -12 61 -87 56 -100 -7 -19 -66
-2 -88 26 -23 27 -23 21 2 -32 11 -24 20 -55 20 -68 0 -21 -3 -23 -32 -17 -32
6 -49 21 -74 62 -9 15 -10 8 -6 -33 3 -41 1 -54 -11 -59 -20 -7 -70 19 -95 51
-24 30 -37 33 -22 6 5 -11 10 -31 10 -45 0 -22 -4 -26 -30 -26 -30 0 -100 51
-100 73 0 6 15 -2 33 -18 26 -24 25 -23 -5 10 -21 21 -40 37 -43 34 -3 -3 2
-25 10 -49 8 -24 13 -45 11 -48 -3 -2 -20 1 -40 8 -37 12 -96 71 -96 95 0 7
-5 17 -12 21 -8 5 -10 -6 -6 -42 8 -68 3 -77 -30 -60 -38 20 -72 58 -81 92
l-8 29 -15 -35 c-8 -19 -23 -41 -32 -49 -38 -32 -75 33 -61 106 l8 38 13 -32
c15 -35 41 -44 50 -18 4 8 10 12 15 9 5 -3 6 3 3 13 -3 10 19 -9 51 -42 31
-33 52 -51 46 -40 -6 11 -28 39 -51 63 -22 24 -40 53 -41 65 0 14 -7 5 -17
-25 -11 -30 -21 -45 -28 -40 -18 11 -42 66 -36 82 3 9 -6 5 -22 -9 -27 -26
-37 -53 -11 -31 24 20 26 7 3 -28 -23 -36 -65 -53 -79 -31 -10 14 -7 48 7 83
6 16 4 17 -14 7 -20 -11 -62 -15 -62 -7 0 3 9 20 19 38 11 18 27 69 36 113 33
151 62 228 100 265 19 19 35 38 35 43 0 6 -11 -2 -25 -17 -22 -24 -45 -34 -45
-20 0 3 13 25 30 49 92 133 269 191 462 151z m-573 -673 c-8 -39 -48 -83 -75
-83 -8 0 -14 -4 -14 -10 0 -16 25 -11 53 10 l25 20 -5 -23 c-4 -18 -3 -19 6
-7 6 8 8 22 5 32 -2 9 0 19 6 23 5 3 10 0 10 -8 0 -8 7 -17 15 -20 8 -4 25
-28 39 -55 13 -26 41 -68 61 -91 19 -24 33 -46 29 -50 -3 -3 -19 9 -34 27 -20
24 -30 30 -35 21 -5 -7 -4 -10 1 -6 5 3 20 -12 32 -34 15 -26 19 -39 10 -39
-31 1 -67 50 -69 94 0 21 0 21 -16 -1 -28 -41 -73 -22 -77 31 -2 33 -12 24
-20 -18 -6 -32 -37 -72 -48 -61 -3 3 -8 -2 -10 -13 -3 -10 5 -32 17 -50 19
-28 24 -30 35 -17 9 11 9 15 1 15 -15 0 -41 25 -41 38 0 5 9 12 21 15 11 3 23
15 26 26 3 12 7 21 10 21 2 0 25 -23 51 -51 41 -44 48 -48 49 -30 1 12 -2 19
-6 17 -4 -3 -20 6 -36 20 -29 25 -27 31 5 14 16 -8 18 -8 14 5 -8 19 10 20 26
0 7 -8 10 -15 6 -15 -4 0 1 -11 10 -24 38 -58 -13 -103 -58 -51 -12 14 -28 38
-35 53 l-13 27 4 -31 c3 -18 8 -43 11 -56 4 -16 0 -32 -12 -47 l-19 -23 -31
26 c-34 29 -70 115 -53 126 6 4 9 13 6 21 -2 8 -7 28 -11 44 -5 24 -4 28 6 18
20 -20 38 -16 64 13 30 32 32 49 6 34 -11 -5 -31 -10 -46 -10 -14 0 -28 -7
-31 -15 -4 -8 -11 -12 -17 -8 -6 4 -1 14 14 27 34 29 65 78 44 70 -8 -4 -15
-10 -15 -15 0 -4 -16 -24 -35 -44 -20 -19 -31 -35 -26 -35 6 0 15 -9 21 -20
14 -26 -15 -80 -43 -80 -10 0 -15 -5 -12 -10 4 -6 10 -8 15 -5 5 3 11 -3 13
-12 4 -14 5 -13 6 5 2 39 19 24 35 -32 19 -66 20 -106 3 -130 -17 -23 -43 -12
-56 25 -11 33 -26 40 -18 8 7 -25 -11 -79 -25 -79 -7 0 -9 41 -6 118 4 89 10
131 28 177 29 77 80 146 124 170 20 11 36 24 36 28 0 5 7 4 15 -3 13 -11 14
-10 9 3 -3 10 1 17 13 20 10 3 19 5 19 6 1 0 -2 -16 -7 -36z m1052 -64 c63
-42 135 -113 162 -158 22 -37 12 -39 -37 -6 -20 13 -36 20 -36 16 0 -5 22 -23
50 -40 27 -17 56 -44 65 -61 17 -34 7 -41 -13 -9 -7 12 -16 18 -19 15 -3 -3
-1 -12 6 -20 11 -14 52 -148 47 -154 -5 -5 -23 21 -53 79 -26 49 -31 54 -41
38 -6 -10 -35 -23 -67 -30 -30 -7 -55 -16 -55 -20 0 -5 12 -4 26 1 32 13 37
12 29 0 -10 -15 5 -12 22 6 9 8 23 12 32 9 9 -4 23 -8 30 -9 8 -2 17 -9 19
-16 3 -7 0 -10 -6 -6 -6 3 -12 1 -14 -6 -3 -8 -32 -14 -84 -16 -64 -3 -83 -1
-93 12 -20 24 -6 44 36 52 50 9 113 34 113 45 0 4 -10 14 -22 20 -15 8 -18 14
-10 17 7 2 22 -4 33 -14 10 -9 22 -14 26 -11 4 4 -2 14 -13 23 -16 13 -17 15
-1 10 9 -3 17 -3 17 -1 0 10 -45 50 -54 47 -12 -4 -35 31 -29 43 4 5 3 7 -2 3
-4 -4 -24 1 -44 11 -26 13 -54 17 -103 15 -39 -2 -68 1 -68 6 0 6 -5 10 -11
10 -5 0 -7 -4 -4 -10 6 -10 -102 -7 -112 4 -3 3 -3 12 0 20 5 13 11 14 39 2
31 -13 78 -7 78 9 0 4 -5 3 -12 -1 -7 -4 -8 -3 -4 5 6 9 11 9 22 0 20 -16 18
-6 -7 36 l-22 36 26 -6 c14 -4 35 -1 47 5 17 9 26 8 45 -4 14 -9 31 -16 40
-16 8 0 14 -6 13 -12 -2 -7 8 -14 21 -16 36 -6 17 13 -44 42 -30 15 -60 36
-65 47 -10 18 -9 18 17 7 15 -7 53 -29 84 -49z m-947 -23 c4 -19 13 -39 20
-45 17 -15 95 -10 89 5 -2 6 3 16 11 23 12 10 16 8 21 -9 4 -11 24 -32 44 -46
33 -22 42 -23 65 -13 14 7 26 19 26 27 0 12 4 12 20 -3 24 -22 22 -24 -19 -30
-32 -4 -58 -25 -93 -75 -15 -21 -19 -23 -28 -10 -5 8 -7 27 -4 43 7 32 -2 35
-25 6 -22 -28 -56 -18 -70 19 -7 20 -10 22 -10 8 -1 -25 27 -56 51 -56 30 0
68 -50 58 -76 -5 -12 -6 -26 -2 -30 4 -5 4 -7 0 -4 -3 3 -7 8 -8 12 -1 4 -18
24 -38 45 -60 63 -92 106 -98 135 -4 15 -10 26 -14 23 -9 -6 -42 64 -35 76 13
20 33 7 39 -25z m-199 -62 c12 -5 14 -9 4 -14 -14 -9 -39 -2 -39 11 0 11 12
11 35 3z m775 -14 c12 -8 11 -10 -7 -10 -13 0 -23 5 -23 10 0 13 11 13 30 0z
m258 -39 c168 -8 176 -13 177 -93 l0 -52 -50 -14 c-27 -8 -57 -20 -66 -28 -23
-21 -441 -20 -459 0 -6 8 -28 20 -48 27 -20 6 -41 18 -45 25 -7 12 -14 11 -44
-1 -41 -17 -109 -20 -118 -5 -22 36 38 123 98 144 41 14 254 13 555 -3z m219
-58 c-4 -3 -2 -12 4 -20 13 -15 1 -17 -21 -3 -13 9 -13 11 0 20 17 11 26 13
17 3z m-949 -66 l32 -33 -37 4 c-21 3 -35 1 -31 -3 18 -19 194 -24 226 -6 36
19 39 4 7 -29 -40 -42 -137 -64 -189 -44 -33 13 -13 19 64 20 52 0 84 5 93 13
10 11 8 12 -8 7 -31 -9 -137 -10 -165 -1 -14 4 -39 18 -56 30 -22 17 -31 19
-31 10 0 -8 3 -13 6 -11 3 2 11 -2 17 -8 9 -10 0 -12 -40 -12 -28 1 -58 5 -66
10 -13 8 -13 7 -2 -6 15 -19 78 -28 111 -16 24 9 42 -4 79 -61 15 -22 15 -24
-3 -37 -27 -20 -68 -17 -99 7 -31 24 -34 17 -6 -18 29 -37 26 -63 -6 -63 -35
0 -61 15 -118 69 l-48 46 21 -42 c11 -23 32 -58 46 -79 23 -33 33 -74 20 -74
-3 0 -22 7 -43 15 -46 20 -108 78 -133 127 -23 45 -23 49 -4 41 22 -8 55 25
55 55 0 24 1 24 18 9 35 -32 85 -10 85 36 l0 27 28 -21 29 -20 25 25 c15 15
23 31 20 37 -4 6 4 9 22 7 18 -2 27 1 26 10 -5 23 23 12 55 -21z m309 -81 c28
-24 28 -24 9 -45 -17 -19 -30 -21 -98 -20 -99 2 -111 -7 -21 -16 37 -3 77 -7
88 -8 12 -1 21 -11 23 -24 5 -32 -42 -52 -123 -54 -86 -2 -75 -12 22 -19 42
-3 78 -10 80 -15 2 -6 -11 -19 -29 -30 -50 -30 -198 -29 -251 3 -21 12 -48 22
-60 21 -18 -1 -16 -3 8 -10 39 -12 140 -91 140 -110 0 -10 -14 -15 -46 -17
-36 -2 -57 3 -90 23 -24 14 -57 32 -74 41 -22 11 -34 29 -46 65 -8 27 -15 49
-13 49 1 0 18 -7 37 -15 20 -8 47 -13 59 -11 13 3 43 6 68 7 40 2 41 3 11 6
-19 3 -42 14 -52 26 -24 29 -24 40 1 32 11 -4 39 -8 63 -10 23 -2 51 -6 62
-10 20 -7 20 -6 1 9 -11 9 -31 16 -44 16 -21 0 -22 1 -8 16 9 8 16 19 16 23 0
5 28 16 63 25 36 10 78 30 98 47 41 35 69 37 106 5z m683 14 c0 -5 -2 -10 -4
-10 -3 0 -8 5 -11 10 -3 6 -1 10 4 10 6 0 11 -4 11 -10z m-210 -52 c16 -20 16
-25 3 -45 -15 -23 -17 -23 -233 -23 -179 0 -219 3 -223 14 -3 8 1 20 9 26 8 7
14 21 14 31 0 18 11 19 206 19 200 0 206 -1 224 -22z m268 -73 c6 -59 -13
-112 -48 -130 -66 -34 -185 -2 -178 47 3 20 8 22 58 19 30 -1 73 4 95 12 l39
14 -79 -1 c-111 -1 -137 7 -133 42 3 26 7 27 73 35 38 4 85 16 105 26 34 18
35 18 49 -2 7 -10 16 -38 19 -62z m-1434 23 c8 -41 53 -111 67 -103 5 4 9 3 8
-2 -1 -4 5 -25 14 -45 35 -78 14 -101 -41 -45 -54 56 -78 128 -70 214 3 30 14
20 22 -19z m1175 -52 c7 -8 9 -25 6 -39 -4 -14 -2 -35 4 -46 13 -24 61 -51 89
-51 17 0 19 -6 16 -47 -2 -27 -5 -88 -8 -136 -7 -156 -12 -158 -427 -165 -337
-5 -367 -2 -408 42 -19 21 -22 35 -23 117 0 81 2 94 16 91 21 -4 76 28 76 44
0 6 -7 17 -15 24 -25 20 -18 25 41 27 32 1 73 11 98 22 39 19 61 21 284 21
155 0 242 4 242 10 0 6 -84 10 -232 10 l-233 0 -11 24 c-10 21 -9 25 7 29 11
3 19 12 19 21 0 14 26 16 224 16 180 0 226 -3 235 -14z m-844 -26 c3 -5 1 -10
-4 -10 -6 0 -11 5 -11 10 0 6 2 10 4 10 3 0 8 -4 11 -10z m-195 -75 c7 -8 28
-15 48 -15 27 0 47 -10 89 -47 63 -53 85 -89 62 -104 -58 -36 -209 58 -209
131 0 14 -5 31 -12 38 -8 8 -8 12 -1 12 6 0 16 -7 23 -15z m1250 -32 c-1 -14
-24 -39 -48 -52 -18 -10 -23 -9 -28 4 -10 25 3 43 33 48 15 2 31 5 36 6 4 0 7
-2 7 -6z m-989 -100 c2 -18 2 -34 0 -111 l-1 -42 -25 16 c-14 9 -23 20 -20 24
3 5 0 12 -6 16 -7 4 -9 3 -6 -3 14 -23 -22 -21 -37 2 -21 32 -20 36 7 31 40
-6 62 8 62 42 0 16 -3 28 -7 25 -5 -2 -8 1 -8 6 0 19 40 12 41 -6z m-161 -53
c18 0 90 -81 90 -101 0 -5 5 -9 12 -9 9 0 9 3 0 12 -26 26 -10 27 23 1 19 -15
33 -34 30 -40 -2 -7 -1 -12 3 -10 8 2 55 -43 50 -48 -2 -2 -22 1 -45 6 -62 16
-223 173 -223 218 0 11 5 9 20 -7 12 -12 29 -22 40 -22z m-60 -20 c0 -5 32
-44 72 -85 l71 -76 -20 -27 c-45 -61 -137 -95 -195 -73 -33 12 -37 31 -7 31
27 0 142 55 160 76 8 10 -12 3 -51 -16 -54 -28 -79 -34 -148 -38 -69 -4 -86
-2 -102 13 -34 30 -24 42 40 49 80 9 153 32 182 57 l23 20 -30 -14 c-49 -23
-136 -41 -207 -41 -81 -1 -123 23 -123 70 l0 29 115 2 c70 1 133 7 160 16 57
19 60 19 60 7z m174 -166 c23 -9 20 -21 -8 -26 -19 -4 -22 -1 -18 14 5 20 5
20 26 12z m191 -38 c90 -5 118 -17 128 -57 6 -22 -3 -25 -22 -6 -10 10 -15 8
-27 -7 -8 -11 -14 -26 -14 -33 0 -7 -9 -13 -20 -13 -16 0 -20 7 -20 33 0 18
-6 42 -14 52 -12 16 -13 12 -9 -36 4 -53 4 -54 -12 -26 -22 38 -54 36 -62 -3
-4 -21 -11 -30 -22 -28 -20 4 -26 49 -12 91 l11 32 -20 -24 c-11 -13 -20 -38
-20 -56 0 -27 -4 -33 -26 -38 -16 -3 -27 0 -30 9 -2 8 -6 21 -9 30 -4 12 -12
14 -31 10 l-26 -7 21 30 c28 38 31 40 83 47 24 4 45 8 47 10 2 2 7 1 11 -1 4
-3 47 -7 95 -9z m412 -7 c-23 -13 -147 -13 -160 0 -8 8 16 11 83 10 66 0 89
-4 77 -10z m157 -8 c10 -11 20 -39 22 -63 4 -38 3 -40 -6 -16 -17 41 -70 48
-70 9 0 -9 -4 -22 -9 -29 -15 -25 -43 15 -36 52 6 30 5 30 -10 11 -9 -11 -14
-28 -11 -37 3 -12 -2 -18 -14 -18 -9 0 -32 -3 -49 -6 -28 -6 -31 -4 -31 19 0
14 -4 29 -10 32 -18 11 -10 25 14 25 31 0 86 20 86 31 0 5 24 9 53 9 40 0 58
-5 71 -19z m96 4 c26 -13 50 -42 50 -59 0 -4 -9 -1 -19 6 -23 14 -51 -4 -51
-33 0 -12 -7 -19 -18 -19 -15 0 -18 6 -14 29 2 17 -3 44 -11 60 -15 30 -15 31
9 31 14 0 38 -7 54 -15z m-335 -66 c0 -8 5 -18 10 -22 6 -5 3 -7 -7 -3 -10 3
-20 1 -23 -5 -13 -20 -24 3 -13 27 12 26 33 28 33 3z m-208 -15 c3 -8 1 -25
-4 -37 l-10 -22 -12 23 c-13 25 -9 52 9 52 6 0 13 -7 17 -16z m442 -2 c10 -19
4 -62 -9 -62 -12 0 -30 49 -24 65 8 20 21 19 33 -3z m140 4 c6 -7 8 -21 5 -31
-6 -16 -8 -16 -16 -1 -5 9 -13 14 -19 11 -10 -7 -13 18 -2 28 10 10 19 8 32
-7z m-920 -28 c-1 -31 -1 -32 -9 -8 -7 21 -8 22 -10 5 l-1 -20 -8 20 c-10 24
-5 35 15 35 9 0 14 -10 13 -32z m195 17 c3 -8 1 -27 -5 -42 -8 -22 -12 -24
-19 -13 -6 8 -10 24 -10 36 0 34 23 47 34 19z"/>
<path d="M532 1771 c-10 -6 -7 -10 12 -15 23 -6 24 -9 16 -32 -18 -47 11 -114
61 -140 15 -7 49 -14 74 -14 38 0 52 5 76 29 16 16 29 36 29 44 0 9 13 18 30
22 30 7 47 21 36 32 -3 3 -12 0 -21 -7 -12 -10 -31 -6 -102 23 -49 19 -107 40
-131 47 -24 6 -49 13 -55 15 -7 3 -18 1 -25 -4z m90 -77 c-3 -35 1 -45 24 -63
15 -11 37 -21 50 -21 27 0 64 32 64 56 0 8 5 12 10 9 28 -18 -8 -75 -58 -90
-32 -9 -88 12 -112 42 -12 15 -20 41 -20 63 0 41 7 52 29 48 12 -2 15 -14 13
-44z m68 6 c0 -4 -9 -15 -20 -25 -19 -18 -20 -17 -20 7 0 13 3 27 6 31 7 7 34
-2 34 -13z m40 -14 c0 -16 -18 -31 -27 -22 -8 8 5 36 17 36 5 0 10 -6 10 -14z
m-40 -30 c9 -12 8 -15 -8 -13 -12 0 -18 6 -15 14 6 16 8 16 23 -1z"/>
<path d="M950 1756 c0 -2 7 -7 16 -10 8 -3 12 -2 9 4 -6 10 -25 14 -25 6z"/>
<path d="M1097 1745 c-21 -8 -59 -28 -84 -45 -36 -24 -51 -29 -67 -23 -30 14
-72 -11 -136 -78 -48 -51 -61 -59 -92 -59 -36 0 -68 -20 -68 -43 0 -22 15 -35
58 -51 23 -9 61 -23 85 -32 27 -10 62 -14 98 -12 54 4 56 3 67 -25 9 -25 13
-27 32 -17 54 29 93 137 72 198 -10 28 -8 30 18 36 18 3 34 16 43 33 15 29 29
134 18 132 -3 0 -23 -7 -44 -14z m23 -58 c0 -57 -54 -104 -81 -71 -9 11 -7 14
9 14 26 0 46 34 39 66 -4 22 9 36 26 27 4 -2 7 -19 7 -36z m-70 -2 c0 -8 -4
-15 -10 -15 -5 0 -10 7 -10 15 0 8 5 15 10 15 6 0 10 -7 10 -15z m-29 -29 c5
3 9 0 9 -6 0 -15 -23 -7 -26 8 -1 7 0 8 3 2 2 -5 9 -8 14 -4z m-40 -19 c73
-49 87 -139 34 -219 -26 -39 -29 -41 -39 -23 -31 54 -60 72 -130 79 -38 4 -82
14 -98 22 -16 8 -35 13 -41 11 -21 -7 47 -35 113 -47 84 -14 100 -19 100 -31
0 -12 -66 -12 -105 0 -88 27 -140 51 -143 65 -4 18 34 36 74 36 18 0 44 19 88
65 70 73 92 79 147 42z"/>
<path d="M892 1619 c-13 -5 -22 -14 -20 -21 7 -20 28 -21 35 -1 3 10 11 21 17
25 15 11 -4 9 -32 -3z"/>
<path d="M940 1609 c0 -13 -4 -18 -12 -13 -7 4 -9 3 -5 -1 16 -19 35 -13 29 9
-5 19 -4 19 11 7 9 -7 14 -17 11 -23 -3 -5 6 -21 20 -35 28 -28 32 -38 16 -48
-5 -3 -10 -11 -10 -16 0 -6 7 -4 15 5 17 16 20 46 5 46 -5 0 -7 7 -4 14 6 15
-48 76 -66 76 -6 0 -10 -9 -10 -21z m63 -33 c4 -10 1 -13 -9 -9 -7 3 -14 9
-14 14 0 14 17 10 23 -5z"/>
<path d="M980 1530 c6 -11 13 -20 16 -20 2 0 0 9 -6 20 -6 11 -13 20 -16 20
-2 0 0 -9 6 -20z"/>
<path d="M866 1532 c-3 -5 1 -9 9 -9 8 0 12 4 9 9 -3 4 -7 8 -9 8 -2 0 -6 -4
-9 -8z"/>
<path d="M915 1530 c-3 -6 1 -7 9 -4 18 7 21 14 7 14 -6 0 -13 -4 -16 -10z"/>
<path d="M436 1583 c-8 -27 -17 -75 -20 -108 l-5 -60 18 80 c10 44 21 92 25
108 14 46 -2 30 -18 -20z"/>
<path d="M449 1424 c-7 -9 -14 -33 -15 -53 0 -20 -4 -45 -8 -56 -7 -19 -7 -19
5 -1 12 20 40 118 35 123 -2 2 -9 -4 -17 -13z"/>
<path d="M846 1371 c11 -10 103 -41 118 -41 6 1 -1 7 -15 15 -30 16 -116 38
-103 26z"/>
<path d="M1079 1253 c-13 -16 -12 -17 4 -4 9 7 17 15 17 17 0 8 -8 3 -21 -13z"/>
<path d="M522 1210 c0 -14 2 -19 5 -12 2 6 2 18 0 25 -3 6 -5 1 -5 -13z"/>
<path d="M1046 1222 c-3 -5 1 -9 9 -9 8 0 12 4 9 9 -3 4 -7 8 -9 8 -2 0 -6 -4
-9 -8z"/>
<path d="M298 1248 c-21 -21 -10 -24 17 -5 10 8 14 16 9 19 -5 3 -17 -3 -26
-14z"/>
<path d="M340 1144 c0 -8 5 -24 11 -35 10 -20 11 -20 24 -2 20 26 20 50 0 33
-8 -7 -12 -17 -8 -23 4 -6 1 -7 -6 -2 -7 4 -11 16 -8 26 3 11 1 19 -4 19 -5 0
-9 -7 -9 -16z"/>
<path d="M410 1121 c0 -5 5 -13 10 -16 6 -3 10 -2 10 4 0 5 -4 13 -10 16 -5 3
-10 2 -10 -4z"/>
<path d="M177 1103 c-12 -12 -7 -33 8 -33 17 0 19 9 7 28 -5 7 -11 9 -15 5z"/>
<path d="M183 951 c-27 -22 -29 -39 -8 -48 9 -3 22 2 30 13 19 25 19 40 0 24
-18 -15 -20 1 -3 18 18 18 6 14 -19 -7z m7 -31 c0 -5 -2 -10 -4 -10 -3 0 -8 5
-11 10 -3 6 -1 10 4 10 6 0 11 -4 11 -10z"/>
<path d="M1339 1182 c6 -11 21 -28 33 -36 19 -14 20 -16 4 -22 -9 -4 -29 -1
-43 5 -14 6 -28 9 -31 7 -3 -3 10 -12 29 -20 30 -13 36 -13 51 1 9 8 22 12 29
8 6 -4 25 -9 41 -10 16 -2 35 -8 41 -15 9 -10 9 -11 0 -6 -7 4 -13 3 -13 -2 0
-5 12 -9 27 -9 l27 0 -28 23 c-16 14 -40 24 -58 24 -21 0 -46 12 -76 37 -32
26 -41 30 -33 15z"/>
<path d="M1293 1175 c0 -8 3 -13 5 -10 3 3 11 0 19 -6 16 -14 17 3 1 19 -16
16 -25 15 -25 -3z"/>
<path d="M1510 860 c0 -5 5 -10 10 -10 6 0 10 5 10 10 0 6 -4 10 -10 10 -5 0
-10 -4 -10 -10z"/>
<path d="M534 1108 c-4 -7 -4 -10 1 -6 4 4 15 2 24 -5 14 -11 14 -10 2 6 -16
20 -18 21 -27 5z"/>
<path d="M627 1094 c7 -3 10 -11 7 -18 -3 -8 2 -16 11 -20 9 -3 13 -2 10 4 -3
6 -1 10 6 10 7 0 4 7 -7 15 -10 8 -23 14 -29 14 -5 0 -5 -3 2 -5z"/>
<path d="M970 1056 c0 -2 7 -7 16 -10 8 -3 12 -2 9 4 -6 10 -25 14 -25 6z"/>
<path d="M680 960 c6 -11 16 -20 22 -20 6 0 3 9 -7 20 -10 11 -20 20 -22 20
-2 0 1 -9 7 -20z"/>
<path d="M885 951 c-9 -15 15 -25 28 -12 9 9 7 10 -7 5 -13 -5 -17 -4 -12 4 4
7 5 12 2 12 -3 0 -7 -4 -11 -9z"/>
<path d="M1365 940 c-3 -6 1 -7 9 -4 18 7 21 14 7 14 -6 0 -13 -4 -16 -10z"/>
<path d="M941 923 c7 -12 15 -20 18 -17 3 2 -3 12 -13 22 -17 16 -18 16 -5 -5z"/>
<path d="M505 940 c-3 -5 1 -10 10 -10 9 0 13 5 10 10 -3 6 -8 10 -10 10 -2 0
-7 -4 -10 -10z"/>
<path d="M360 851 c0 -5 11 -18 25 -29 20 -16 22 -21 10 -26 -8 -3 -15 -2 -15
3 0 5 -12 9 -27 9 -26 0 -26 -1 8 -19 19 -10 44 -18 56 -19 23 0 23 0 4 31
-20 33 -61 67 -61 50z"/>
<path d="M448 838 c24 -11 46 -17 49 -14 7 7 -60 36 -79 35 -7 0 7 -10 30 -21z"/>
<path d="M245 740 c11 -12 32 -28 47 -36 26 -14 28 -13 28 7 0 17 -3 19 -14
10 -10 -9 -16 -8 -26 4 -8 9 -23 21 -34 27 l-21 11 20 -23z"/>
<path d="M285 750 c3 -5 8 -10 11 -10 2 0 4 5 4 10 0 6 -5 10 -11 10 -5 0 -7
-4 -4 -10z"/>
<path d="M795 860 c-3 -5 -3 -10 2 -11 29 -3 50 -7 66 -14 9 -4 17 -4 17 -1 0
6 -62 36 -74 36 -3 0 -8 -4 -11 -10z"/>
<path d="M778 823 c6 -2 18 -2 25 0 6 3 1 5 -13 5 -14 0 -19 -2 -12 -5z"/>
<path d="M674 771 c4 -6 18 -11 32 -11 13 0 24 -5 24 -11 0 -7 11 -8 30 -4 17
4 30 2 30 -3 0 -5 7 -13 16 -16 9 -3 12 -2 9 5 -4 6 -1 10 6 8 8 -1 20 -1 28
0 30 2 2 11 -70 21 -41 6 -82 13 -93 16 -12 4 -16 2 -12 -5z"/>
<path d="M693 663 c9 -2 17 -9 17 -14 0 -12 -5 -11 -52 3 -31 9 -41 9 -51 -2
-10 -10 -7 -12 16 -8 15 3 27 1 27 -3 0 -12 87 -11 95 1 3 6 20 10 37 10 51 0
28 7 -42 13 -36 3 -57 3 -47 0z"/>
<path d="M482 612 c-14 -9 8 -22 64 -40 24 -8 31 -7 31 4 0 7 -4 11 -8 8 -5
-3 -16 4 -26 16 -10 11 -21 20 -26 20 -5 0 -4 -7 3 -15 10 -12 10 -15 -3 -15
-9 0 -17 7 -19 15 -2 9 -8 11 -16 7z"/>
<path d="M1313 805 c0 -8 4 -12 9 -9 5 3 6 10 3 15 -9 13 -12 11 -12 -6z"/>
<path d="M1554 800 c-6 -6 -47 -17 -92 -26 -45 -9 -79 -21 -76 -26 3 -5 12 -7
20 -4 8 3 14 1 14 -5 0 -6 5 -7 10 -4 6 4 7 11 4 17 -4 7 -2 8 4 4 6 -4 20 -2
31 4 13 7 22 7 26 0 3 -5 12 -10 18 -10 7 0 6 4 -3 10 -12 8 -11 10 6 10 23 0
62 25 53 34 -3 3 -10 1 -15 -4z"/>
<path d="M1480 650 c-14 -4 -20 -8 -13 -9 6 -1 19 -4 29 -8 11 -4 15 -3 11 4
-4 6 -1 14 5 16 20 8 -4 6 -32 -3z"/>
<path d="M186 700 c12 -47 39 -93 64 -108 24 -14 24 -13 5 3 -11 9 -19 21 -17
26 1 6 -3 7 -9 3 -9 -5 -10 -1 -7 14 4 12 2 22 -3 22 -5 0 -16 15 -24 33 -10
22 -13 25 -9 7z"/>
<path d="M723 563 c9 -2 25 -2 35 0 9 3 1 5 -18 5 -19 0 -27 -2 -17 -5z"/>
<path d="M795 540 c-3 -6 0 -12 7 -15 7 -3 134 -4 282 -2 205 1 270 5 274 15
5 16 -553 18 -563 2z"/>
<path d="M766 511 c-3 -5 1 -14 9 -21 10 -9 15 -9 15 -1 0 6 -5 11 -11 11 -5
0 -7 5 -4 10 3 6 4 10 1 10 -3 0 -7 -4 -10 -9z"/>
<path d="M800 430 c0 -6 100 -10 280 -10 180 0 280 4 280 10 0 6 -100 10 -280
10 -180 0 -280 -4 -280 -10z"/>
<path d="M340 561 c12 -23 70 -51 106 -51 26 0 29 7 14 30 -8 12 -10 12 -11
-5 l0 -20 -9 20 c-8 18 -9 18 -9 2 -1 -16 -3 -17 -22 -3 -12 8 -28 12 -37 9
-10 -4 -13 -2 -8 5 3 6 -3 16 -14 22 -20 11 -21 10 -10 -9z"/>
<path d="M410 427 c0 -8 74 -77 78 -72 4 4 -18 27 -55 59 -13 11 -23 16 -23
13z"/>
<path d="M535 294 c17 -13 37 -24 45 -23 13 0 13 1 0 6 -8 4 -20 13 -26 21 -6
9 -20 17 -30 18 -14 2 -12 -3 11 -22z"/>
<path d="M300 363 c-32 -8 -95 -12 -152 -11 -103 3 -122 -5 -37 -15 45 -6 245
16 257 27 11 11 -20 11 -68 -1z"/>
<path d="M380 310 c0 -4 -14 -13 -32 -21 -17 -7 -26 -15 -20 -17 7 -2 27 6 45
17 23 14 37 17 45 11 9 -7 9 -7 2 2 -11 14 -40 20 -40 8z"/>
<path d="M288 265 c-3 -3 -34 -12 -69 -20 l-64 -15 55 6 c30 3 63 7 72 7 9 1
14 6 11 11 -4 5 1 7 11 3 10 -4 15 -3 11 3 -7 11 -19 13 -27 5z"/>
<path d="M530 170 c-9 -6 -10 -10 -3 -10 6 0 15 5 18 10 8 12 4 12 -15 0z"/>
<path d="M1573 1155 c0 -8 4 -12 9 -9 5 3 6 10 3 15 -9 13 -12 11 -12 -6z"/>
</g>
</svg>
